PathFileType	4	(X/Y/Z)	c:/Users/goper/Files/vsCode/490R/osim_files/A04/A04_Fast_02.trc
DataRate	CameraRate	NumFrames	NumMarkers	Units                	OrigDataRate	OrigDataStartFrame	OrigNumFrames
120.00	120.00	6	36	mm	120.0	1231	1406
                Frame#	Time	LPSIS			LASIS			LTH1			LTH2			LTH3			LTH4			LLFE			LMFE			LSH1			LSH2			LSH3			LSH4			LLMAL			LMMAL			LCAL			LMTP5			LTOE			LMTP1			RPSIS			RASIS			RTH1			RTH2			RTH3			RTH4			RLFE			RMFE			RSH1			RSH2			RSH3			RSH4			RLMAL			RMMAL			RCAL			RMTP1			RTOE			RMTP5		
		X1	Y1	Z1	X2	Y2	Z2	X3	Y3	Z3	X4	Y4	Z4	X5	Y5	Z5	X6	Y6	Z6	X7	Y7	Z7	X8	Y8	Z8	X9	Y9	Z9	X10	Y10	Z10	X11	Y11	Z11	X12	Y12	Z12	X13	Y13	Z13	X14	Y14	Z14	X15	Y15	Z15	X16	Y16	Z16	X17	Y17	Z17	X18	Y18	Z18	X19	Y19	Z19	X20	Y20	Z20	X21	Y21	Z21	X22	Y22	Z22	X23	Y23	Z23	X24	Y24	Z24	X25	Y25	Z25	X26	Y26	Z26	X27	Y27	Z27	X28	Y28	Z28	X29	Y29	Z29	X30	Y30	Z30	X31	Y31	Z31	X32	Y32	Z32	X33	Y33	Z33	X34	Y34	Z34	X35	Y35	Z35	X36	Y36	Z36

1231	10.25000	0.00000	0.00000	0.00000	0.00000	0.00000	0.00000	0.00000	0.00000	0.00000	-4216.47607	652.46942	423.29562	-4265.75000	706.95404	428.38266	0.00000	0.00000	0.00000	-4258.56543	532.82050	420.25061	-4292.43408	544.41278	284.52252	-4234.55713	432.07458	413.97897	0.00000	0.00000	0.00000	-4294.60059	435.66058	408.14856	-4294.47705	392.86853	402.77222	-4241.76172	112.75075	342.36600	-4273.34863	117.56307	261.54666	0.00000	0.00000	0.00000	-4379.40137	67.99655	394.06958	-4435.01562	86.02608	340.94153	-4423.48340	70.59312	293.68140	0.00000	0.00000	0.00000	-4258.59424	1013.66479	396.29950	-4269.27881	662.31183	427.07428	0.00000	0.00000	0.00000	0.00000	0.00000	0.00000	0.00000	0.00000	0.00000	0.00000	0.00000	0.00000	-4273.20898	510.96994	193.51613	-3877.53271	437.20383	4.66387	0.00000	0.00000	0.00000	0.00000	0.00000	0.00000	0.00000	0.00000	0.00000	0.00000	0.00000	0.00000	-3901.84790	243.97543	219.75752	0.00000	0.00000	0.00000	-3934.21899	106.93370	187.58101	-3962.90771	106.23405	139.52391	0.00000	0.00000	0.00000
1232	10.25833	0.00000	0.00000	0.00000	0.00000	0.00000	0.00000	0.00000	0.00000	0.00000	-4220.98926	653.23468	423.15457	-4271.08252	707.21075	428.26163	0.00000	0.00000	0.00000	-4261.77344	533.19415	419.89105	-4295.74414	544.47577	284.16031	-4237.02246	432.57370	413.64297	0.00000	0.00000	0.00000	-4297.17334	435.93616	407.82556	-4296.73438	393.00864	402.52872	-4241.89795	112.87498	342.30576	-4273.51270	117.65059	261.49573	0.00000	0.00000	0.00000	-4379.48877	67.97939	394.01059	-4435.14453	85.93169	340.89505	-4423.53857	70.41737	293.60263	0.00000	0.00000	0.00000	-4266.88672	1014.72412	396.54816	-4274.75342	662.58514	428.06024	0.00000	0.00000	0.00000	0.00000	0.00000	0.00000	0.00000	0.00000	0.00000	0.00000	0.00000	0.00000	-4292.55078	515.26709	193.14639	0.00000	0.00000	0.00000	-3892.40723	440.69321	3.50249	0.00000	0.00000	0.00000	0.00000	0.00000	0.00000	0.00000	0.00000	0.00000	-3924.85254	243.93956	220.68030	0.00000	0.00000	0.00000	-3959.12720	107.20486	189.31396	-3987.90430	106.56157	141.34993	0.00000	0.00000	0.00000
1233	10.26667	0.00000	0.00000	0.00000	0.00000	0.00000	0.00000	0.00000	0.00000	0.00000	-4225.74316	654.11823	423.07059	-4276.38525	707.48663	428.03973	0.00000	0.00000	0.00000	-4264.79785	533.50348	419.45718	-4298.91699	544.47711	283.72791	-4239.35986	433.05945	413.24265	0.00000	0.00000	0.00000	-4299.33594	436.01874	407.38168	-4298.91602	393.13385	402.25388	-4242.05957	113.01677	342.27911	-4273.66943	117.71565	261.48691	0.00000	0.00000	0.00000	-4379.56836	67.94489	393.97995	-4435.25098	85.79593	340.85526	-4423.64062	70.27871	293.57684	0.00000	0.00000	0.00000	-4275.23926	1015.70129	396.67868	-4279.53027	662.80432	427.79779	0.00000	0.00000	0.00000	0.00000	0.00000	0.00000	0.00000	0.00000	0.00000	0.00000	0.00000	0.00000	-4312.05371	519.70013	192.53557	-3906.65991	444.09390	2.45237	0.00000	0.00000	0.00000	0.00000	0.00000	0.00000	0.00000	0.00000	0.00000	0.00000	0.00000	0.00000	-3948.47095	243.13701	221.59906	0.00000	0.00000	0.00000	-3985.02881	106.77093	190.96225	-4013.75610	106.24448	142.95708	0.00000	0.00000	0.00000
1234	10.27500	-3882.87598	422.52267	2.56848	0.00000	0.00000	0.00000	0.00000	0.00000	0.00000	-4230.38330	654.99872	422.90384	-4281.57031	707.69159	427.76166	0.00000	0.00000	0.00000	-4267.69043	533.84668	418.94247	-4301.91992	544.48572	283.20862	-4241.64697	433.55411	412.80624	0.00000	0.00000	0.00000	-4301.66553	436.38443	406.96826	-4300.91162	393.20129	401.85153	-4242.17627	113.11388	342.22858	-4273.79492	117.77143	261.45203	0.00000	0.00000	0.00000	-4379.64209	67.93104	393.93042	-4435.36621	85.68050	340.82315	-4423.75342	70.18826	293.55331	0.00000	0.00000	0.00000	-4283.57471	1016.61298	396.76047	-4284.21436	663.01611	427.44684	0.00000	0.00000	0.00000	0.00000	0.00000	0.00000	0.00000	0.00000	0.00000	0.00000	0.00000	0.00000	-4331.46582	524.40442	191.84792	0.00000	0.00000	0.00000	-3928.70483	60.08477	68.05752	0.00000	0.00000	0.00000	0.00000	0.00000	0.00000	0.00000	0.00000	0.00000	-3972.67285	241.63258	222.50374	-3868.43701	279.26367	179.21503	-4011.90161	105.75770	192.45833	-4040.65625	105.54646	144.50317	0.00000	0.00000	0.00000
1235	10.28333	0.00000	0.00000	0.00000	0.00000	0.00000	0.00000	0.00000	0.00000	0.00000	-4234.78516	655.81085	422.66956	-4286.63086	707.88519	427.36398	0.00000	0.00000	0.00000	-4270.42627	534.16687	418.30536	-4304.80566	544.45148	282.60425	-4243.79834	433.99323	412.28888	0.00000	0.00000	0.00000	-4303.68750	436.48978	406.41339	-4302.92432	393.37793	401.46530	-4242.30518	113.22613	342.15872	-4273.89697	117.80126	261.39499	0.00000	0.00000	0.00000	-4379.70752	67.92314	393.88663	-4435.43555	85.55444	340.77435	-4423.81543	70.07057	293.52472	0.00000	0.00000	0.00000	-4291.89404	1017.42554	396.78009	-4288.76025	663.20770	427.04349	0.00000	0.00000	0.00000	0.00000	0.00000	0.00000	0.00000	0.00000	0.00000	0.00000	0.00000	0.00000	-4350.43311	529.40912	191.08041	-3896.33838	425.45966	0.73402	0.00000	0.00000	0.00000	0.00000	0.00000	0.00000	0.00000	0.00000	0.00000	0.00000	0.00000	0.00000	-3997.47852	239.40027	223.38550	0.00000	0.00000	0.00000	-4039.68066	104.28237	193.80748	-4067.40576	103.41770	145.79219	0.00000	0.00000	0.00000
1236	10.29167	0.00000	0.00000	0.00000	0.00000	0.00000	0.00000	0.00000	0.00000	0.00000	-4239.15527	656.48425	422.38177	-4291.62744	708.05817	426.88461	0.00000	0.00000	0.00000	-4273.06885	534.49408	417.60107	-4307.51318	544.42047	281.89658	-4245.81299	434.41168	411.69864	0.00000	0.00000	0.00000	-4305.84717	436.67618	405.89600	-4304.76660	393.48032	400.92755	-4242.44141	113.35200	342.07806	-4273.97461	117.79463	261.31268	0.00000	0.00000	0.00000	-4379.74561	67.91769	393.82919	-4435.50098	85.45220	340.70993	-4423.84229	69.91520	293.45728	0.00000	0.00000	0.00000	-4300.19678	1018.13696	396.76883	-4293.15039	663.26855	426.52054	0.00000	0.00000	0.00000	0.00000	0.00000	0.00000	0.00000	0.00000	0.00000	0.00000	0.00000	0.00000	-4368.77783	534.68396	190.31975	0.00000	0.00000	0.00000	-3909.33813	428.22266	-1.37513	0.00000	0.00000	0.00000	0.00000	0.00000	0.00000	0.00000	0.00000	0.00000	-4022.79810	236.57239	224.23666	-3912.89673	265.22324	176.93698	-4068.30273	102.39380	194.99553	0.00000	0.00000	0.00000	0.00000	0.00000	0.00000
